<svg fill="#1693E6" xmlns="http://www.w3.org/2000/svg" data-name="Layer 1" viewBox="0 0 100 100" x="0px" y="0px"><title>Artboard 58</title><path d="M99,80.84a6.42,6.42,0,0,0-6.26-6.41v-4.9A9.54,9.54,0,0,0,83.21,60H81.72a9.54,9.54,0,0,0-9.53,9.53v4.9a6.42,6.42,0,0,0-6.26,6.41V91.33a6.42,6.42,0,0,0,6.42,6.42H92.58A6.42,6.42,0,0,0,99,91.33ZM81.72,65h1.49a4.53,4.53,0,0,1,4.53,4.53v4.9H77.19v-4.9A4.53,4.53,0,0,1,81.72,65ZM94,91.33a1.42,1.42,0,0,1-1.42,1.42H72.35a1.42,1.42,0,0,1-1.42-1.42V80.84a1.42,1.42,0,0,1,1.42-1.42H92.58A1.42,1.42,0,0,1,94,80.84Z"></path><path d="M12.42,70.33A17.74,17.74,0,0,0,1,86.85v8.39a2.5,2.5,0,0,0,2.5,2.5H59a2.5,2.5,0,1,0,0-5H6V86.85A12.72,12.72,0,0,1,14.19,75l18.54-7a16.41,16.41,0,0,0,14,7.69h0a16.42,16.42,0,0,0,14-7.69l3.38,1.28a2.5,2.5,0,0,0,1.77-4.68L62,63.16V57.77a28,28,0,0,0,4.84-12.27,14.14,14.14,0,0,0,4.94-10.7,7.07,7.07,0,0,0-2.08-5,7.21,7.21,0,0,0-2.55-1.64V24.38a13.63,13.63,0,0,0-2.53-8.08A20.49,20.49,0,0,0,53.19,8.25V4.75a2.5,2.5,0,0,0-2.5-2.5H46.33c-8.87,0-15.78,7-18.43,13.56A19.62,19.62,0,0,0,26.52,23l-.06,5a7.2,7.2,0,0,0-2.65,1.62,7.06,7.06,0,0,0-2.18,5.13,14.1,14.1,0,0,0,5.14,10.86,27.56,27.56,0,0,0,4.65,11.88v5.61ZM30.53,42.26a9.11,9.11,0,0,1-3.91-7.45,2.07,2.07,0,0,1,.64-1.52,2.17,2.17,0,0,1,1.56-.6A2.47,2.47,0,0,0,30.65,32a2.5,2.5,0,0,0,.78-1.78l.09-7.12a14.65,14.65,0,0,1,1-5.4c2-5,7.24-10.44,13.8-10.44h1.86v3.09a2.5,2.5,0,0,0,2.24,2.49,14.88,14.88,0,0,1,10.18,6.41,8.66,8.66,0,0,1,1.58,5.14v5.79a2.5,2.5,0,0,0,2.5,2.5h0a2.16,2.16,0,0,1,1.51.63,2.07,2.07,0,0,1,.62,1.5,9.13,9.13,0,0,1-3.76,7.35,2.5,2.5,0,0,0-1,1.74A23.19,23.19,0,0,1,57.9,55,4.28,4.28,0,0,0,57,57.51v6.88l0,0a11.58,11.58,0,0,1-20.6,0l0,0v-7.1a4.23,4.23,0,0,0-.83-2.51,23.34,23.34,0,0,1-4-10.77A2.5,2.5,0,0,0,30.53,42.26Z"></path></svg>