<svg fill="#1693E6" xmlns="http://www.w3.org/2000/svg" xmlns:xlink="http://www.w3.org/1999/xlink" version="1.1" x="0px" y="0px" viewBox="0 0 66 66" style="enable-background:new 0 0 66 66;" xml:space="preserve"><g><path d="M31,25.7V42c0,1.1,0.9,2,2,2s2-0.9,2-2V25.7c0-1.1-0.9-2-2-2S31,24.6,31,25.7z"></path><path d="M36.5,8.5c-0.7-1.3-2-2-3.5-2h0c-1.4,0-2.8,0.8-3.5,2L4.1,53.7c-0.7,1.2-0.7,2.6,0,3.8c0.7,1.2,2,2,3.5,2h50.7   c1.5,0,2.7-0.7,3.5-2c0.7-1.2,0.7-2.6,0-3.8L36.5,8.5z M7.7,55.5L33,10.4l0,0v0l25.3,45L7.7,55.5z"></path><path d="M33,44.4c-1.1,0-2,0.9-2,2v0.9c0,1.1,0.9,2,2,2s2-0.9,2-2v-0.9C35,45.3,34.1,44.4,33,44.4z"></path></g></svg>