<svg fill="#1693E6" xmlns="http://www.w3.org/2000/svg" xmlns:xlink="http://www.w3.org/1999/xlink" version="1.1" x="0px" y="0px" viewBox="0 0 96 96" style="enable-background:new 0 0 96 96;" xml:space="preserve"><g><g><path d="M24.2,87.1l3.8,1.3c1.1,0.4,2.3,0.6,3.4,0.6c4.7,0,9-3,10.5-7.6l6.3-19.2c1.6-4.8-0.3-10.1-4.6-12.8    c-1.4-0.9-3.3-0.5-4.1,0.9c-0.9,1.4-0.5,3.3,0.9,4.1c2,1.2,2.8,3.7,2.1,5.9l-6.3,19.2c-0.9,2.7-3.7,4.1-6.4,3.2l-3.8-1.3    c-2.7-0.9-4.1-3.7-3.3-6.4l6.3-19.2c0.7-2.2,2.8-3.6,5.2-3.5c1.7,0.1,3.1-1.1,3.2-2.8c0.1-1.7-1.1-3.1-2.8-3.2    c-5.1-0.3-9.7,2.8-11.2,7.6l-6.3,19.2C15.2,78.9,18.4,85.2,24.2,87.1z"></path><path d="M77.1,10.4C72.8,6,65.8,6,61.4,10.3L47.2,24.6c-3.6,3.6-4.3,9.1-1.7,13.5c0.8,1.4,2.7,1.9,4.1,1.1    c1.4-0.8,1.9-2.7,1.1-4.1c-1.2-2-0.9-4.5,0.8-6.2l14.3-14.3c2-2,5.2-2,7.2,0l2.9,2.9c1,1,1.5,2.2,1.5,3.6c0,1.4-0.5,2.6-1.5,3.6    L61.5,39c-1.6,1.6-4.2,2-6.2,0.8c-1.4-0.8-3.3-0.4-4.1,1.1c-0.8,1.4-0.4,3.3,1.1,4.1c1.8,1,3.7,1.5,5.6,1.5c2.9,0,5.7-1.1,7.8-3.2    L80,28.9c2.1-2.1,3.2-4.9,3.2-7.8c0-3-1.2-5.7-3.3-7.8L77.1,10.4z"></path><path d="M21.9,14.5c-1.2-1.2-3.1-1.2-4.2,0c-1.2,1.2-1.2,3.1,0,4.2l13.5,13.5c0.6,0.6,1.4,0.9,2.1,0.9s1.5-0.3,2.1-0.9    c1.2-1.2,1.2-3.1,0-4.2L21.9,14.5z"></path><path d="M36.7,12.6v13c0,1.7,1.3,3,3,3s3-1.3,3-3v-13c0-1.7-1.3-3-3-3S36.7,11,36.7,12.6z"></path><path d="M31.7,35.6c0-1.7-1.3-3-3-3h-13c-1.7,0-3,1.3-3,3s1.3,3,3,3h13C30.4,38.6,31.7,37.3,31.7,35.6z"></path></g></g></svg>