<?xml version="1.0" encoding="UTF-8"?>
<svg width="70px" height="70px" viewBox="0 0 70 70" version="1.1" xmlns="http://www.w3.org/2000/svg" xmlns:xlink="http://www.w3.org/1999/xlink">
    <!-- Generator: Sketch 49 (51002) - http://www.bohemiancoding.com/sketch -->
    <title>noun_975283_1693E6</title>
    <desc>Created with Sketch.</desc>
    <defs></defs>
    <g id="Page-1" stroke="none" stroke-width="1" fill="none" fill-rule="evenodd">
        <g id="noun_975283_1693E6" transform="translate(-1.000000, 0.000000)" fill="#1693E6" fill-rule="nonzero">
            <path d="M27.986006,0.01177 C21.074006,0.01176 14.160406,2.65015 8.892206,7.91802 C-1.643594,18.45393 -1.643194,35.56982 8.892206,46.10552 C15.228706,52.44182 23.939906,54.95312 32.173506,53.66802 L31.423506,51.76182 C23.933006,52.79422 16.059806,50.42932 10.298506,44.66802 C0.527106,34.89662 0.526906,19.09588 10.298506,9.32427 C15.184206,4.43856 21.590006,1.98051 27.986006,1.98052 C34.382006,1.98053 40.787806,4.43856 45.673506,9.32427 C51.442606,15.09341 53.810506,22.95838 52.767206,30.44927 L54.642206,31.16802 C55.916406,22.94336 53.408106,14.24649 47.079806,7.91802 C41.811706,2.65016 34.898006,0.01178 27.986006,0.01177 Z M27.986006,10.01177 C23.633206,10.01175 19.270006,11.66521 15.954806,14.98052 C9.324206,21.61102 9.324206,32.38121 15.954806,39.01182 C19.381606,42.43872 23.919906,44.06472 28.423506,43.94932 L27.673506,42.01182 C23.947706,41.93482 20.245806,40.45902 17.392206,37.60552 C11.526306,31.73931 11.526306,22.25297 17.392206,16.38677 C20.325406,13.45362 24.149306,11.98051 27.986006,11.98052 C31.822706,11.98053 35.646606,13.45366 38.579806,16.38677 C41.433106,19.24032 42.908606,22.93464 42.986006,26.66802 L44.954806,27.44927 C45.076306,22.94637 43.450106,18.41318 40.017206,14.98052 C36.702006,11.66527 32.338806,10.01179 27.986006,10.01177 Z M23.173506,21.32427 C22.8672593,21.3681118 22.5985423,21.5512154 22.4457038,21.820194 C22.2928653,22.0891726 22.273113,22.4137425 22.392206,22.69927 L40.048506,68.63682 C40.1870214,69.0018151 40.5252599,69.2528458 40.9147294,69.2797058 C41.3041989,69.3065657 41.6736961,69.1043444 41.861006,68.76182 L48.173506,57.10552 L60.798506,69.69932 C61.1881302,70.0845438 61.8151818,70.0845438 62.204806,69.69932 L70.704806,61.23052 C70.8995436,61.0421055 71.0094936,60.7827364 71.0094936,60.51177 C71.0094936,60.2408036 70.8995436,59.9814345 70.704806,59.79302 L58.111006,47.23052 L69.767206,40.88682 C70.1097304,40.6995101 70.3119517,40.3300129 70.2850918,39.9405434 C70.2582318,39.5510739 70.0072011,39.2128354 69.642206,39.07432 L23.673506,21.38677 C23.5149054,21.3236032 23.3427753,21.302087 23.173506,21.32427 Z M25.048506,24.07427 L66.892206,40.16802 L55.954806,46.07432 C55.67635,46.2264253 55.4865912,46.5016405 55.4434349,46.8159832 C55.4002786,47.1303258 55.5088454,47.4464983 55.736006,47.66802 L68.548506,60.51182 L61.486006,67.57432 L48.642206,54.73052 C48.4164945,54.5186097 48.1053651,54.4231825 47.7996548,54.4720993 C47.4939444,54.5210161 47.2281255,54.7087609 47.079806,54.98052 L41.142206,65.91802 L25.048506,24.07427 Z" id="Shape"></path>
        </g>
    </g>
</svg>