<svg fill="#1693E6" xmlns="http://www.w3.org/2000/svg" xmlns:xlink="http://www.w3.org/1999/xlink" version="1.1" x="0px" y="0px" viewBox="0 0 512 512" enable-background="new 0 0 512 512" xml:space="preserve"><g><path d="M387.1,2H124.9c-22.6,0-41,18.4-41,41V469c0,22.6,18.4,41,41,41h262.2c22.6,0,41-18.4,41-41V43C428.1,20.4,409.7,2,387.1,2   z M411.7,469c0,13.6-11,24.6-24.6,24.6H124.9c-13.6,0-24.6-11-24.6-24.6V43c0-13.6,11-24.6,24.6-24.6h262.2   c13.6,0,24.6,11,24.6,24.6V469z"></path><path d="M116.7,444.5h278.6V67.5H116.7V444.5z M133.1,83.9h245.8v344.1H133.1V83.9z"></path><rect x="206.8" y="34.8" width="98.3" height="16.4"></rect><rect x="174.1" y="34.8" width="16.4" height="16.4"></rect><rect x="223.2" y="460.8" width="65.5" height="16.4"></rect><path d="M289,253.6c14.7-10.4,24.3-27.5,24.3-46.8c0-31.6-25.7-57.4-57.4-57.4s-57.4,25.7-57.4,57.4c0,19.3,9.6,36.4,24.3,46.8   c-38,13.6-65.3,49.9-65.3,92.5h16.4c0-45.2,36.8-81.9,81.9-81.9s81.9,36.8,81.9,81.9h16.4C354.3,303.5,327,267.3,289,253.6z    M215,206.8c0-22.6,18.4-41,41-41s41,18.4,41,41c0,22.6-18.4,41-41,41S215,229.4,215,206.8z"></path></g></svg>