<?xml version="1.0" encoding="UTF-8"?>
<svg width="70px" height="65px" viewBox="0 0 70 65" version="1.1" xmlns="http://www.w3.org/2000/svg" xmlns:xlink="http://www.w3.org/1999/xlink">
    <!-- Generator: Sketch 49 (51002) - http://www.bohemiancoding.com/sketch -->
    <title>noun_255142_1693E6</title>
    <desc>Created with Sketch.</desc>
    <defs></defs>
    <g id="Page-1" stroke="none" stroke-width="1" fill="none" fill-rule="evenodd">
        <g id="noun_255142_1693E6" fill="#1693E6" fill-rule="nonzero">
            <path d="M0,1.4 L0,63 C0,63.7731987 0.62680135,64.4 1.4,64.4 L68.6,64.4 C69.3731987,64.4 70,63.7731987 70,63 L70,1.4 C70,0.62680135 69.3731987,0 68.6,0 L1.4,0 C0.62680135,0 0,0.62680135 0,1.4 Z M2.8,2.8 L67.2,2.8 L67.2,11.2 L2.8,11.2 L2.8,2.8 Z M2.8,14 L67.2,14 L67.2,61.6 L2.8,61.6 L2.8,14 Z M7,8.4 C7.77319864,8.4 8.4,7.77319864 8.4,7 C8.4,6.22680136 7.77319864,5.6 7,5.6 C6.22680136,5.6 5.6,6.22680136 5.6,7 C5.6,7.77319864 6.22680136,8.4 7,8.4 Z M12.6,8.4 C13.3731986,8.4 14,7.77319864 14,7 C14,6.22680136 13.3731986,5.6 12.6,5.6 C11.8268014,5.6 11.2,6.22680136 11.2,7 C11.2,7.77319864 11.8268014,8.4 12.6,8.4 Z M18.2,8.4 C18.9731986,8.4 19.6,7.77319864 19.6,7 C19.6,6.22680136 18.9731986,5.6 18.2,5.6 C17.4268014,5.6 16.8,6.22680136 16.8,7 C16.8,7.77319864 17.4268014,8.4 18.2,8.4 Z" id="Shape"></path>
            <path d="M42.3951696,50.8112612 C42.9412348,50.2638592 43.8276653,50.2627759 44.375067,50.8088414 C44.9224689,51.3549067 44.9235522,52.2413371 44.3774867,52.7887388 L38.7911586,58.3887388 C38.2446212,58.9366137 37.357257,58.937156 36.8100505,58.3899495 L31.2100505,52.7899495 C30.6633166,52.2432154 30.6633166,51.3567846 31.2100505,50.8100505 C31.7567846,50.2633166 32.6432154,50.2633166 33.1899495,50.8100505 L36.4,54.0237762 L36.4,43.4 C36.4,42.6268013 37.0268013,42 37.8,42 C38.5731987,42 39.2,42.6268013 39.2,43.4 L39.2,54.0142504 L42.3951696,50.8112612 Z M36.7951696,38.7887388 C37.3412348,39.3361408 38.2276653,39.3372241 38.775067,38.7911586 C39.3224689,38.2450933 39.3235522,37.3586629 38.7774867,36.8112612 L33.1911586,31.2112612 C32.6446212,30.6633863 31.757257,30.662844 31.2100505,31.2100505 L25.6100505,36.8100505 C25.0633165,37.3567846 25.0633165,38.2432154 25.6100505,38.7899495 C26.1567845,39.3366834 27.0432155,39.3366834 27.5899495,38.7899495 L30.8,35.5762238 L30.8,46.2 C30.8,46.9731987 31.4268013,47.6 32.2,47.6 C32.9731987,47.6 33.6,46.9731987 33.6,46.2 L33.6,35.5857496 L36.7951696,38.7887388 Z M28.56,21.2800171 C34.0299551,21.2800171 38.5488757,25.5333984 38.8982978,30.9632361 C38.9651632,32.0022884 40.1024994,32.6073667 41.0015525,32.0821959 C41.8074863,31.6114198 42.7237152,31.3600171 43.68,31.3600171 C46.6181548,31.3600171 49,33.7418623 49,36.6800171 C49,38.4169957 48.1632626,40.011342 46.7776739,41.0057847 C46.1495138,41.456618 46.0057618,42.3313153 46.4565951,42.9594757 C46.9074284,43.5876361 47.7821257,43.7313878 48.4102861,43.2805545 C50.5210871,41.7656238 51.8,39.328742 51.8,36.6800171 C51.8,32.1954648 48.1645522,28.5600171 43.68,28.5600171 C42.2240059,28.5600171 42.0839966,28.756012 41.4374814,28.8679933 C40.1520006,22.9039795 34.8675653,18.4800171 28.56,18.4800171 C21.2919327,18.4800171 15.4,24.3719498 15.4,31.6400171 C15.4,36.2568928 17.7980123,40.4627163 21.6532892,42.8438587 C22.3111295,43.2501619 23.1737883,43.0462508 23.5800915,42.3884107 C23.9863947,41.7305703 23.7824836,40.8679116 23.1246434,40.4616083 C20.0868898,38.5853944 18.2,35.2760181 18.2,31.6400171 C18.2,25.9183471 22.83833,21.2800171 28.56,21.2800171 Z" id="Shape"></path>
        </g>
    </g>
</svg>