<svg fill="#1693E6" xmlns:dc="http://purl.org/dc/elements/1.1/" xmlns:cc="http://creativecommons.org/ns#" xmlns:rdf="http://www.w3.org/1999/02/22-rdf-syntax-ns#" xmlns:svg="http://www.w3.org/2000/svg" xmlns="http://www.w3.org/2000/svg" xmlns:sodipodi="http://sodipodi.sourceforge.net/DTD/sodipodi-0.dtd" xmlns:inkscape="http://www.inkscape.org/namespaces/inkscape" version="1.1" x="0px" y="0px" viewBox="0 0 100 100"><g transform="translate(0,-952.36218)"><g transform="translate(14.992126,957.36218)"><path d="M 1.9842519,0 C 0.88582676,0 0,1.0275591 0,1.984252 L 0,88.015748 C 0,89.043307 0.9566929,90 1.9842519,90 l 52.0157471,0 c 0.531496,0 1.027559,-0.212598 1.417323,-0.602362 L 69.413385,75.401575 c 0.354331,-0.354331 0.566929,-0.885827 0.602362,-1.417323 l 0,-72 C 70.015747,0.95669291 69.059054,0 67.996062,0 z m 2.0196851,4.003937 62.007873,0 0,67.996063 -12.011811,0 c -1.204724,0 -1.984252,1.062992 -1.984252,1.984252 l 0,12.011811 -48.01181,0 z m 5.9881888,5.988189 c -1.0629921,0 -1.9842519,1.098425 -1.9842519,2.019685 l 0,13.996063 c 0,1.027559 0.9566929,1.984252 1.9842519,1.984252 l 18.0000002,0 c 1.062992,0 2.019685,-0.956693 2.019685,-1.984252 l 0,-13.996063 c 0,-1.062992 -0.956693,-2.019685 -2.019685,-2.019685 z m 2.0196852,4.003937 13.996063,0 0,9.992126 -13.996063,0 z M 36,17.007874 c -1.098426,0 -1.984252,0.885827 -1.984252,1.984252 0,1.098425 0.885826,2.019685 1.984252,2.019685 l 23.988188,0 c 1.133858,0 2.019685,-0.92126 2.019685,-2.019685 0,-1.098425 -0.885827,-1.984252 -2.019685,-1.984252 z M 31.818897,31.96063 c -0.602362,0.07087 -1.133858,0.389764 -1.488189,0.885827 l -7.866141,11.374015 -4.322835,-2.905511 c -0.885827,-0.602363 -2.232283,-0.318898 -2.834646,0.566929 -0.566929,0.885827 -0.318897,2.19685 0.56693,2.763779 l 5.988188,4.003937 c 0.885827,0.602363 2.196851,0.354331 2.799213,-0.531496 l 9,-13.003937 c 0.46063,-0.602362 0.46063,-1.523622 0.106299,-2.161417 -0.389764,-0.673228 -1.204724,-1.062992 -1.948819,-0.992126 z M 9.9921258,34.015748 C 8.9291337,34.051181 8.0078739,35.07874 8.0078739,36 l 0,18 c 0,1.062992 0.9566929,1.984252 1.9842519,1.984252 l 18.0000002,0 c 1.062992,0 2.019685,-0.92126 2.019685,-1.984252 l 0,-1.984252 c 0,-1.062992 -0.956693,-2.055118 -2.019685,-2.055118 -1.062993,0 -2.019685,0.992126 -1.984252,2.055118 l -13.996063,0 0,-14.031496 9.992126,0 c 1.062992,0.03543 2.019685,-0.92126 2.019685,-1.984252 0,-1.062992 -0.956693,-2.019685 -2.019685,-1.984252 z m 26.0078742,9 c -1.098426,0 -1.984252,0.885827 -1.984252,1.984252 0,1.098425 0.885826,1.984252 1.984252,1.984252 l 23.988188,0 c 1.133858,0 2.019685,-0.885827 2.019685,-1.984252 0,-1.098425 -0.885827,-1.984252 -2.019685,-1.984252 z M 9.9921258,62.007874 c -1.0629921,0 -1.9842519,1.062992 -1.9842519,1.984252 l 0,13.996063 c 0,1.062992 0.9566929,2.019685 1.9842519,2.019685 l 18.0000002,0 c 1.062992,0 2.019685,-0.956693 2.019685,-2.019685 l 0,-13.996063 c 0,-1.027559 -0.956693,-1.984252 -2.019685,-1.984252 z m 2.0196852,4.003937 13.996063,0 0,9.992126 -13.996063,0 z M 36,68.988189 c -1.098426,0 -1.984252,0.92126 -1.984252,2.019685 0,1.098425 0.885826,1.984252 1.984252,1.984252 l 12.01181,0 c 1.098426,0 1.984252,-0.885827 1.984252,-1.984252 0,-1.098425 -0.885826,-2.019685 -1.984252,-2.019685 z m 19.984251,7.015748 7.15748,0 -7.15748,7.15748 z" style="" fill="#1693E6" fill-opacity="1" fill-rule="nonzero" stroke="none"></path></g></g></svg>