<svg fill="#FF0000" width="120px" height="120px" xmlns="http://www.w3.org/2000/svg" xmlns:xlink="http://www.w3.org/1999/xlink" version="1.1" x="0px" y="0px" viewBox="0 0 100 140" style="enable-background:new 0 0 100 100;" xml:space="preserve"><path d="M-17.3,36"></path><path d="M77.4,42c0-8.4-6.8-15.2-15.2-15.2c-6.1,0-11.3,3.5-13.7,8.7l-0.1-0.1v0l-0.1,0.1C48.1,35.3,48,35.2,48,35  c-2.5-4.9-7.7-8.3-13.6-8.3c-8.4,0-15.2,6.8-15.2,15.2c0,3.9,1.5,7.5,3.9,10.2l0,0l25.2,29.6v0l25.2-29.6l0,0  C75.9,49.4,77.4,45.9,77.4,42z"></path></svg>