<svg fill="#1693E6" xmlns="http://www.w3.org/2000/svg" xmlns:xlink="http://www.w3.org/1999/xlink" version="1.1" x="0px" y="0px" viewBox="0 0 96 96" style="enable-background:new 0 0 96 96;" xml:space="preserve"><g><g><path d="M33.3,81.3L47.5,67c3.6-3.6,4.3-9.1,1.7-13.5l-5.2,3.1c1.2,2,0.9,4.5-0.8,6.2L29,77c-2,2-5.2,2-7.2,0L19,74.2    c-2-2-2-5.2,0-7.2l14.3-14.3c1.6-1.6,4.2-2,6.2-0.8l3-5.2c-4.4-2.6-9.9-1.9-13.5,1.7L14.7,62.7c-4.3,4.3-4.3,11.3,0,15.7l2.9,2.9    c2.2,2.2,5,3.2,7.8,3.2C28.3,84.5,31.1,83.4,33.3,81.3z"></path><rect x="28" y="45" transform="matrix(0.7071 -0.7071 0.7071 0.7071 -19.89 48.0077)" width="40" height="6"></rect><path d="M78.4,14.7c-2.1-2.1-4.9-3.3-7.8-3.3c0,0,0,0,0,0c-3,0-5.7,1.2-7.8,3.2L48.4,29c-3.6,3.6-4.3,9.1-1.7,13.5l5.2-3.1    c-1.2-2-0.9-4.5,0.8-6.2L67,19c1-1,2.2-1.5,3.6-1.5c0,0,0,0,0,0c1.4,0,2.6,0.5,3.6,1.5l2.9,2.9c2,2,2,5.2,0,7.2L62.8,43.3    c-1.6,1.6-4.2,2-6.2,0.8l-3,5.2c1.8,1,3.7,1.5,5.6,1.5c2.9,0,5.7-1.1,7.8-3.2l14.3-14.3c4.3-4.3,4.3-11.4,0-15.7L78.4,14.7z"></path></g></g></svg>