<svg fill="#1693E6" xmlns:dc="http://purl.org/dc/elements/1.1/" xmlns:cc="http://creativecommons.org/ns#" xmlns:rdf="http://www.w3.org/1999/02/22-rdf-syntax-ns#" xmlns:svg="http://www.w3.org/2000/svg" xmlns="http://www.w3.org/2000/svg" xmlns:sodipodi="http://sodipodi.sourceforge.net/DTD/sodipodi-0.dtd" xmlns:inkscape="http://www.inkscape.org/namespaces/inkscape" version="1.1" x="0px" y="0px" viewBox="0 0 100 100"><g transform="translate(0,-952.36218)"><path style="font-size:medium;font-style:normal;font-variant:normal;font-weight:normal;font-stretch:normal;text-indent:0;text-align:start;text-decoration:none;line-height:normal;letter-spacing:normal;word-spacing:normal;text-transform:none;direction:ltr;block-progression:tb;writing-mode:lr-tb;text-anchor:start;baseline-shift:baseline;opacity:1;color:#000000;fill:#1693E6;fill-opacity:1;stroke:none;stroke-width:4;marker:none;visibility:visible;display:inline;overflow:visible;enable-background:accumulate;font-family:Sans;-inkscape-font-specification:Sans" d="M 8 22 A 2.0002 2.0002 0 0 0 6 24 L 6 76 A 2.0002 2.0002 0 0 0 8 78 L 92 78 A 2.0002 2.0002 0 0 0 94 76 L 94 24 A 2.0002 2.0002 0 0 0 92 22 L 8 22 z M 13.1875 26 L 86.8125 26 L 50 56.375 L 13.1875 26 z M 10 28.59375 L 35.40625 49.5625 L 10 71.46875 L 10 28.59375 z M 90 28.59375 L 90 71.46875 L 69.3125 53.46875 A 2.0002 2.0002 0 0 0 67.84375 52.96875 A 2.0002 2.0002 0 0 0 66.6875 56.5 L 86.8125 74 L 13.21875 74 L 38.5625 52.15625 L 48.71875 60.53125 A 2.0002 2.0002 0 0 0 51.28125 60.53125 L 90 28.59375 z " transform="translate(0,952.36218)"></path></g></svg>