<?xml version="1.0" encoding="UTF-8"?>
<svg width="52px" height="82px" viewBox="0 0 52 82" version="1.1" xmlns="http://www.w3.org/2000/svg" xmlns:xlink="http://www.w3.org/1999/xlink">
    <!-- Generator: Sketch 49 (51002) - http://www.bohemiancoding.com/sketch -->
    <title>noun_364509_1693E6</title>
    <desc>Created with Sketch.</desc>
    <defs></defs>
    <g id="Page-1" stroke="none" stroke-width="1" fill="none" fill-rule="evenodd">
        <g id="noun_364509_1693E6" fill="#1693E6" fill-rule="nonzero">
            <path d="M26.2,0.2 C12.1,0.2 0.7,11.6 0.7,25.7 L0.7,56.2 C0.7,70.3 12.1,81.7 26.2,81.7 C40.3,81.7 51.7,70.3 51.7,56.2 L51.7,25.7 C51.7,11.7 40.2,0.2 26.2,0.2 Z M48.7,56.3 C48.7,68.7 38.6,78.8 26.2,78.8 C13.8,78.8 3.7,68.7 3.7,56.3 L3.7,25.7 C3.7,13.3 13.8,3.2 26.2,3.2 C38.6,3.2 48.7,13.3 48.7,25.7 L48.7,56.3 Z" id="Shape"></path>
            <circle id="Oval" cx="25.7" cy="21" r="4"></circle>
        </g>
    </g>
</svg>