<svg fill="#1693E6" xmlns="http://www.w3.org/2000/svg" xmlns:xlink="http://www.w3.org/1999/xlink" version="1.1" x="0px" y="0px" viewBox="0 0 100 100" style="enable-background:new 0 0 100 100;" xml:space="preserve"><path d="M71.3,22.8C58,9.4,36.2,9.4,22.8,22.8S9.4,58,22.8,71.3c12.9,12.9,33.6,13.4,47.1,1.4l14,14  c0.8,0.8,2,0.8,2.8,0c0.8-0.8,0.8-2,0-2.8l-14-14C84.7,56.4,84.3,35.7,71.3,22.8z M68.5,68.5c-11.8,11.8-31.1,11.8-42.9,0  c-11.8-11.8-11.8-31.1,0-42.9c11.8-11.8,31.1-11.8,42.9,0C80.3,37.4,80.3,56.7,68.5,68.5z"></path></svg>