<svg fill="#1693E6" xmlns="http://www.w3.org/2000/svg" xmlns:xlink="http://www.w3.org/1999/xlink" version="1.1" x="0px" y="0px" viewBox="0 0 100 100" style="enable-background:new 0 0 100 100;" xml:space="preserve"><g><path d="M47.8,12.4l-28.6,0.7c-3.4,0.1-6,2.8-6.1,6.1l-0.7,28.6c0,1.7,0.6,3.4,1.8,4.6l31.1,31.1c2.6,2.6,6.1,4.1,9.8,4.1   c3.7,0,7.2-1.4,9.8-4.1L83.5,65c2.6-2.6,4.1-6.1,4.1-9.8c0-3.7-1.4-7.2-4.1-9.8L52.4,14.2C51.2,13,49.5,12.4,47.8,12.4z M81.6,55.2   c0,2.1-0.8,4.1-2.3,5.6L60.8,79.3c-1.5,1.5-3.5,2.3-5.6,2.3c-2.1,0-4.1-0.8-5.6-2.3L18.5,48.2c-0.1-0.1-0.1-0.1-0.1-0.2l0.7-28.6   c0-0.1,0.1-0.3,0.3-0.3L48,18.4c0,0,0,0,0,0c0.1,0,0.1,0,0.2,0.1l31.1,31.1C80.8,51.1,81.6,53.1,81.6,55.2z"></path><path d="M30.4,30.4c-4.3,4.3-4.3,11.3,0,15.6c2.1,2.1,5,3.2,7.8,3.2c2.8,0,5.6-1.1,7.8-3.2c4.3-4.3,4.3-11.3,0-15.6   S34.7,26.2,30.4,30.4z M41.8,41.8c-1.9,1.9-5.1,1.9-7.1,0c-1.9-1.9-1.9-5.1,0-7.1c1-1,2.3-1.5,3.5-1.5c1.3,0,2.6,0.5,3.5,1.5   C43.7,36.6,43.7,39.8,41.8,41.8z"></path></g></svg>