<?xml version="1.0" encoding="UTF-8"?>
<svg width="58px" height="64px" viewBox="0 0 58 64" version="1.1" xmlns="http://www.w3.org/2000/svg" xmlns:xlink="http://www.w3.org/1999/xlink">
    <!-- Generator: Sketch 49 (51002) - http://www.bohemiancoding.com/sketch -->
    <title>noun_1243265_1693E6</title>
    <desc>Created with Sketch.</desc>
    <defs></defs>
    <g id="Page-1" stroke="none" stroke-width="1" fill="none" fill-rule="evenodd">
        <g id="noun_1243265_1693E6" fill="#1693E6" fill-rule="nonzero">
            <path d="M29,6 C13,6 0,19 0,35 C0,51 13,64 29,64 C45,64 58,51 58,35 C58,19 45,6 29,6 Z M56,36 C55.5,50.1 44.1,61.5 30,62 L30,59 L28,59 L28,62 C13.9,61.5 2.5,50.1 2,36 L5,36 L5,34 L2,34 C2.5,19.9 13.9,8.5 28,8 L28,11 L30,11 L30,8 C44.1,8.5 55.5,19.9 56,34 L53,34 L53,36 L56,36 Z" id="Shape"></path>
            <rect id="Rectangle-path" transform="translate(45.405380, 51.384700) rotate(-45.000000) translate(-45.405380, -51.384700) " x="44.4053896" y="49.3847192" width="1.99998082" height="3.99996164"></rect>
            <rect id="Rectangle-path" transform="translate(12.593220, 18.615200) rotate(-45.000000) translate(-12.593220, -18.615200) " x="11.5932296" y="16.6152192" width="1.99998082" height="3.99996164"></rect>
            <rect id="Rectangle-path" transform="translate(12.614500, 51.406080) rotate(-45.000000) translate(-12.614500, -51.406080) " x="10.6145192" y="50.4060896" width="3.99996164" height="1.99998082"></rect>
            <rect id="Rectangle-path" transform="translate(45.384100, 18.593920) rotate(-45.000000) translate(-45.384100, -18.593920) " x="43.3841192" y="17.5939296" width="3.99996164" height="1.99998082"></rect>
            <polygon id="Shape" points="30 2 35 2 35 0 23 0 23 2 28 2 28 6 29 6 30 6"></polygon>
            <path d="M30,31.1 L30,21 L28,21 L28,31.1 C26.3,31.5 25,33.1 25,35 C25,37.2 26.8,39 29,39 C31.2,39 33,37.2 33,35 C33,33.1 31.7,31.6 30,31.1 Z M29,37 C27.9,37 27,36.1 27,35 C27,33.9 27.9,33 29,33 C30.1,33 31,33.9 31,35 C31,36.1 30.1,37 29,37 Z" id="Shape"></path>
        </g>
    </g>
</svg>